<svg xmlns="http://www.w3.org/2000/svg" version="1.1" xmlns:xlink="http://www.w3.org/1999/xlink" xmlns:svgjs="http://svgjs.dev/svgjs" width="1000" height="623" viewBox="0 0 1000 623"><g transform="matrix(1,0,0,1,-0.6060606060606233,13.881679968509161)"><svg viewBox="0 0 396 247" data-background-color="#ffffff" preserveAspectRatio="xMidYMid meet" height="623" width="1000" xmlns="http://www.w3.org/2000/svg" xmlns:xlink="http://www.w3.org/1999/xlink"><g id="tight-bounds" transform="matrix(1,0,0,1,0.2400000000000091,-0.09999999999999432)"><svg viewBox="0 0 395.52 247.2" height="247.2" width="395.52"><g><svg></svg></g><g><svg viewBox="0 0 395.52 247.2" height="247.2" width="395.52"><g transform="matrix(1,0,0,1,90.46007232267038,47.215199999999996)"><svg viewBox="0 0 214.5998553546592 152.7696" height="152.7696" width="214.5998553546592"><g><svg viewBox="0 0 214.5998553546592 152.7696" height="152.7696" width="214.5998553546592"><g><svg viewBox="0 0 214.5998553546592 152.7696" height="152.7696" width="214.5998553546592"><g><svg viewBox="0 0 214.5998553546592 152.7696" height="152.7696" width="214.5998553546592"><g id="textblocktransform"><svg viewBox="0 0 214.5998553546592 152.7696" height="152.7696" width="214.5998553546592" id="textblock"><g><svg viewBox="0 0 214.5998553546592 152.7696" height="152.7696" width="214.5998553546592"><g transform="matrix(1,0,0,1,0,0)"><svg width="214.5998553546592" viewBox="2.4000000953674316 -35.099998474121094 50.5 35.94999694824219" height="152.7696" data-palette-color="#a437db"><path d="M20.5-32.4Q22.35-30.1 24.75-26.48 27.15-22.85 28.1-21.65 29.05-20.45 29.63-20.45 30.2-20.45 30.65-21.1 31.1-21.75 33.95-26.1 36.8-30.45 38.65-32.73 40.5-35 41.6-35.05 42.7-35.1 44.45-35.1 46.2-35.1 48.55-35 50.9-34.9 51.68-33.77 52.45-32.65 52.6-30.6L52.6-30.6Q52.9-25.35 52.9-16.68 52.9-8 52.45-3L52.45-3Q52.35-1.8 51.55-0.85 50.75 0.1 49.35 0.1L49.35 0.1Q46.3 0.15 42.58 0.15 38.85 0.15 36.65 0L36.65 0Q35.85-0.05 35.23-0.63 34.6-1.2 34.55-2.15L34.55-2.15 34.25-10.4Q34.2-11.6 33.73-11.75 33.25-11.9 32.85-11.1L32.85-11.1Q30.2-6.4 26.25-0.6L26.25-0.6Q25.3 0.85 23.75 0.85 22.2 0.85 21.2-0.6L21.2-0.6Q19.45-3.1 15.25-11.2L15.25-11.2Q15-11.7 14.68-11.8 14.35-11.9 14.1-11.55 13.85-11.2 13.85-10.4L13.85-10.4 13.6-2.15Q13.55-1.2 12.75-0.63 11.95-0.05 10.9 0L10.9 0 5.95 0Q4.6-0.05 3.78-0.95 2.95-1.85 2.8-3L2.8-3Q2.4-7.45 2.4-16.82 2.4-26.2 2.65-30.6L2.65-30.6Q2.8-32.7 3.6-33.85 4.4-35 6.45-35L6.45-35Q16.95-35 17.8-34.85 18.65-34.7 20.5-32.4Z" opacity="1" transform="matrix(1,0,0,1,0,0)" fill="#a437db" class="wordmark-text-0" data-fill-palette-color="primary" id="text-0"></path></svg></g></svg></g></svg></g></svg></g><g></g></svg></g></svg></g></svg></g><g><path d="M164.119 11.15A107.3 107.3 0 0 1 231.401 11.15L217.624 11.15A93.523 93.523 0 0 0 177.896 11.15L164.119 11.15M164.119 236.05A107.3 107.3 0 0 0 231.401 236.05L217.624 236.05A93.523 93.523 0 0 1 177.896 236.05L164.119 236.05" fill="#a437db" stroke="transparent" data-fill-palette-color="tertiary"></path></g></svg></g><defs></defs></svg><rect width="395.52" height="247.2" fill="none" stroke="none" visibility="hidden"></rect></g></svg></g></svg>